<svg xmlns="http://www.w3.org/2000/svg" xmlns:xlink="http://www.w3.org/1999/xlink" width="100" zoomAndPan="magnify" viewBox="0 0 75 74.999997" height="100" preserveAspectRatio="xMidYMid meet" version="1.0"><defs><clipPath id="ec651cd352"><path d="M 11.523438 11.4375 L 63.648438 11.4375 L 63.648438 63.5625 L 11.523438 63.5625 Z M 11.523438 11.4375 " clip-rule="nonzero"/></clipPath><clipPath id="00ae62dd60"><path d="M 37.585938 11.4375 C 23.191406 11.4375 11.523438 23.105469 11.523438 37.5 C 11.523438 51.894531 23.191406 63.5625 37.585938 63.5625 C 51.980469 63.5625 63.648438 51.894531 63.648438 37.5 C 63.648438 23.105469 51.980469 11.4375 37.585938 11.4375 Z M 37.585938 11.4375 " clip-rule="nonzero"/></clipPath><linearGradient x1="0.000000195509" gradientTransform="matrix(0.203613, 0, 0, 0.203613, 11.524602, 11.437499)" y1="128" x2="255.999988" gradientUnits="userSpaceOnUse" y2="128" id="7986694fb5"><stop stop-opacity="1" stop-color="rgb(100%, 87.098694%, 34.899902%)" offset="0"/><stop stop-opacity="1" stop-color="rgb(100%, 86.981201%, 34.880066%)" offset="0.0078125"/><stop stop-opacity="1" stop-color="rgb(100%, 86.74469%, 34.843445%)" offset="0.015625"/><stop stop-opacity="1" stop-color="rgb(100%, 86.508179%, 34.806824%)" offset="0.0234375"/><stop stop-opacity="1" stop-color="rgb(100%, 86.273193%, 34.770203%)" offset="0.03125"/><stop stop-opacity="1" stop-color="rgb(100%, 86.036682%, 34.733582%)" offset="0.0390625"/><stop stop-opacity="1" stop-color="rgb(100%, 85.801697%, 34.69696%)" offset="0.046875"/><stop stop-opacity="1" stop-color="rgb(100%, 85.565186%, 34.660339%)" offset="0.0546875"/><stop stop-opacity="1" stop-color="rgb(100%, 85.328674%, 34.623718%)" offset="0.0625"/><stop stop-opacity="1" stop-color="rgb(100%, 85.093689%, 34.587097%)" offset="0.0703125"/><stop stop-opacity="1" stop-color="rgb(100%, 84.857178%, 34.550476%)" offset="0.078125"/><stop stop-opacity="1" stop-color="rgb(100%, 84.620667%, 34.513855%)" offset="0.0859375"/><stop stop-opacity="1" stop-color="rgb(100%, 84.385681%, 34.477234%)" offset="0.09375"/><stop stop-opacity="1" stop-color="rgb(100%, 84.14917%, 34.440613%)" offset="0.101562"/><stop stop-opacity="1" stop-color="rgb(100%, 83.914185%, 34.403992%)" offset="0.109375"/><stop stop-opacity="1" stop-color="rgb(100%, 83.677673%, 34.367371%)" offset="0.117187"/><stop stop-opacity="1" stop-color="rgb(100%, 83.441162%, 34.33075%)" offset="0.125"/><stop stop-opacity="1" stop-color="rgb(100%, 83.206177%, 34.292603%)" offset="0.132812"/><stop stop-opacity="1" stop-color="rgb(100%, 82.969666%, 34.255981%)" offset="0.140625"/><stop stop-opacity="1" stop-color="rgb(100%, 82.73468%, 34.21936%)" offset="0.148438"/><stop stop-opacity="1" stop-color="rgb(100%, 82.498169%, 34.182739%)" offset="0.15625"/><stop stop-opacity="1" stop-color="rgb(100%, 82.261658%, 34.146118%)" offset="0.164063"/><stop stop-opacity="1" stop-color="rgb(100%, 82.026672%, 34.109497%)" offset="0.171875"/><stop stop-opacity="1" stop-color="rgb(100%, 81.790161%, 34.072876%)" offset="0.179688"/><stop stop-opacity="1" stop-color="rgb(100%, 81.55365%, 34.036255%)" offset="0.1875"/><stop stop-opacity="1" stop-color="rgb(100%, 81.318665%, 33.999634%)" offset="0.195312"/><stop stop-opacity="1" stop-color="rgb(100%, 81.082153%, 33.963013%)" offset="0.203125"/><stop stop-opacity="1" stop-color="rgb(100%, 80.847168%, 33.926392%)" offset="0.210938"/><stop stop-opacity="1" stop-color="rgb(100%, 80.610657%, 33.889771%)" offset="0.21875"/><stop stop-opacity="1" stop-color="rgb(100%, 80.374146%, 33.853149%)" offset="0.226562"/><stop stop-opacity="1" stop-color="rgb(100%, 80.13916%, 33.816528%)" offset="0.234375"/><stop stop-opacity="1" stop-color="rgb(100%, 79.902649%, 33.779907%)" offset="0.242187"/><stop stop-opacity="1" stop-color="rgb(100%, 79.666138%, 33.743286%)" offset="0.25"/><stop stop-opacity="1" stop-color="rgb(100%, 79.431152%, 33.705139%)" offset="0.257812"/><stop stop-opacity="1" stop-color="rgb(100%, 79.194641%, 33.668518%)" offset="0.265625"/><stop stop-opacity="1" stop-color="rgb(100%, 78.959656%, 33.631897%)" offset="0.273438"/><stop stop-opacity="1" stop-color="rgb(100%, 78.723145%, 33.595276%)" offset="0.28125"/><stop stop-opacity="1" stop-color="rgb(100%, 78.486633%, 33.558655%)" offset="0.289062"/><stop stop-opacity="1" stop-color="rgb(100%, 78.251648%, 33.522034%)" offset="0.296875"/><stop stop-opacity="1" stop-color="rgb(100%, 78.015137%, 33.485413%)" offset="0.304688"/><stop stop-opacity="1" stop-color="rgb(100%, 77.778625%, 33.448792%)" offset="0.3125"/><stop stop-opacity="1" stop-color="rgb(100%, 77.54364%, 33.41217%)" offset="0.320313"/><stop stop-opacity="1" stop-color="rgb(100%, 77.307129%, 33.375549%)" offset="0.328125"/><stop stop-opacity="1" stop-color="rgb(100%, 77.072144%, 33.338928%)" offset="0.335938"/><stop stop-opacity="1" stop-color="rgb(100%, 76.835632%, 33.302307%)" offset="0.34375"/><stop stop-opacity="1" stop-color="rgb(100%, 76.599121%, 33.265686%)" offset="0.351562"/><stop stop-opacity="1" stop-color="rgb(100%, 76.364136%, 33.229065%)" offset="0.359375"/><stop stop-opacity="1" stop-color="rgb(100%, 76.127625%, 33.192444%)" offset="0.367188"/><stop stop-opacity="1" stop-color="rgb(100%, 75.891113%, 33.154297%)" offset="0.375"/><stop stop-opacity="1" stop-color="rgb(100%, 75.656128%, 33.117676%)" offset="0.382812"/><stop stop-opacity="1" stop-color="rgb(100%, 75.419617%, 33.081055%)" offset="0.390625"/><stop stop-opacity="1" stop-color="rgb(100%, 75.184631%, 33.044434%)" offset="0.398438"/><stop stop-opacity="1" stop-color="rgb(100%, 74.94812%, 33.007812%)" offset="0.40625"/><stop stop-opacity="1" stop-color="rgb(100%, 74.711609%, 32.971191%)" offset="0.414062"/><stop stop-opacity="1" stop-color="rgb(100%, 74.476624%, 32.93457%)" offset="0.421875"/><stop stop-opacity="1" stop-color="rgb(100%, 74.240112%, 32.897949%)" offset="0.429688"/><stop stop-opacity="1" stop-color="rgb(100%, 74.003601%, 32.861328%)" offset="0.4375"/><stop stop-opacity="1" stop-color="rgb(100%, 73.768616%, 32.824707%)" offset="0.445312"/><stop stop-opacity="1" stop-color="rgb(100%, 73.532104%, 32.788086%)" offset="0.453125"/><stop stop-opacity="1" stop-color="rgb(100%, 73.297119%, 32.751465%)" offset="0.460937"/><stop stop-opacity="1" stop-color="rgb(100%, 73.060608%, 32.714844%)" offset="0.46875"/><stop stop-opacity="1" stop-color="rgb(100%, 72.824097%, 32.678223%)" offset="0.476562"/><stop stop-opacity="1" stop-color="rgb(100%, 72.589111%, 32.641602%)" offset="0.484375"/><stop stop-opacity="1" stop-color="rgb(100%, 72.3526%, 32.60498%)" offset="0.492187"/><stop stop-opacity="1" stop-color="rgb(100%, 72.116089%, 32.566833%)" offset="0.5"/><stop stop-opacity="1" stop-color="rgb(100%, 71.881104%, 32.530212%)" offset="0.507812"/><stop stop-opacity="1" stop-color="rgb(100%, 71.644592%, 32.493591%)" offset="0.515625"/><stop stop-opacity="1" stop-color="rgb(100%, 71.409607%, 32.45697%)" offset="0.523438"/><stop stop-opacity="1" stop-color="rgb(100%, 71.173096%, 32.420349%)" offset="0.53125"/><stop stop-opacity="1" stop-color="rgb(100%, 70.936584%, 32.383728%)" offset="0.539062"/><stop stop-opacity="1" stop-color="rgb(100%, 70.701599%, 32.347107%)" offset="0.546875"/><stop stop-opacity="1" stop-color="rgb(100%, 70.465088%, 32.310486%)" offset="0.554688"/><stop stop-opacity="1" stop-color="rgb(100%, 70.228577%, 32.273865%)" offset="0.5625"/><stop stop-opacity="1" stop-color="rgb(100%, 69.993591%, 32.237244%)" offset="0.570312"/><stop stop-opacity="1" stop-color="rgb(100%, 69.75708%, 32.200623%)" offset="0.578125"/><stop stop-opacity="1" stop-color="rgb(100%, 69.522095%, 32.164001%)" offset="0.585938"/><stop stop-opacity="1" stop-color="rgb(100%, 69.285583%, 32.12738%)" offset="0.59375"/><stop stop-opacity="1" stop-color="rgb(100%, 69.049072%, 32.090759%)" offset="0.601562"/><stop stop-opacity="1" stop-color="rgb(100%, 68.814087%, 32.054138%)" offset="0.609375"/><stop stop-opacity="1" stop-color="rgb(100%, 68.577576%, 32.017517%)" offset="0.617188"/><stop stop-opacity="1" stop-color="rgb(100%, 68.341064%, 31.97937%)" offset="0.625"/><stop stop-opacity="1" stop-color="rgb(100%, 68.106079%, 31.942749%)" offset="0.632812"/><stop stop-opacity="1" stop-color="rgb(100%, 67.869568%, 31.906128%)" offset="0.640625"/><stop stop-opacity="1" stop-color="rgb(100%, 67.634583%, 31.869507%)" offset="0.648438"/><stop stop-opacity="1" stop-color="rgb(100%, 67.398071%, 31.832886%)" offset="0.65625"/><stop stop-opacity="1" stop-color="rgb(100%, 67.16156%, 31.796265%)" offset="0.664062"/><stop stop-opacity="1" stop-color="rgb(100%, 66.926575%, 31.759644%)" offset="0.671875"/><stop stop-opacity="1" stop-color="rgb(100%, 66.690063%, 31.723022%)" offset="0.679688"/><stop stop-opacity="1" stop-color="rgb(100%, 66.453552%, 31.686401%)" offset="0.6875"/><stop stop-opacity="1" stop-color="rgb(100%, 66.218567%, 31.64978%)" offset="0.695312"/><stop stop-opacity="1" stop-color="rgb(100%, 65.982056%, 31.613159%)" offset="0.703125"/><stop stop-opacity="1" stop-color="rgb(100%, 65.74707%, 31.576538%)" offset="0.710937"/><stop stop-opacity="1" stop-color="rgb(100%, 65.510559%, 31.539917%)" offset="0.71875"/><stop stop-opacity="1" stop-color="rgb(100%, 65.274048%, 31.503296%)" offset="0.726562"/><stop stop-opacity="1" stop-color="rgb(100%, 65.039062%, 31.466675%)" offset="0.734375"/><stop stop-opacity="1" stop-color="rgb(100%, 64.802551%, 31.428528%)" offset="0.742188"/><stop stop-opacity="1" stop-color="rgb(100%, 64.56604%, 31.391907%)" offset="0.75"/><stop stop-opacity="1" stop-color="rgb(100%, 64.331055%, 31.355286%)" offset="0.757812"/><stop stop-opacity="1" stop-color="rgb(100%, 64.094543%, 31.318665%)" offset="0.765625"/><stop stop-opacity="1" stop-color="rgb(100%, 63.859558%, 31.282043%)" offset="0.773438"/><stop stop-opacity="1" stop-color="rgb(100%, 63.623047%, 31.245422%)" offset="0.78125"/><stop stop-opacity="1" stop-color="rgb(100%, 63.386536%, 31.208801%)" offset="0.789063"/><stop stop-opacity="1" stop-color="rgb(100%, 63.15155%, 31.17218%)" offset="0.796875"/><stop stop-opacity="1" stop-color="rgb(100%, 62.915039%, 31.135559%)" offset="0.804688"/><stop stop-opacity="1" stop-color="rgb(100%, 62.678528%, 31.098938%)" offset="0.8125"/><stop stop-opacity="1" stop-color="rgb(100%, 62.443542%, 31.062317%)" offset="0.820313"/><stop stop-opacity="1" stop-color="rgb(100%, 62.207031%, 31.025696%)" offset="0.828125"/><stop stop-opacity="1" stop-color="rgb(100%, 61.972046%, 30.989075%)" offset="0.835938"/><stop stop-opacity="1" stop-color="rgb(100%, 61.735535%, 30.952454%)" offset="0.84375"/><stop stop-opacity="1" stop-color="rgb(100%, 61.499023%, 30.915833%)" offset="0.851563"/><stop stop-opacity="1" stop-color="rgb(100%, 61.264038%, 30.879211%)" offset="0.859375"/><stop stop-opacity="1" stop-color="rgb(100%, 61.027527%, 30.841064%)" offset="0.867188"/><stop stop-opacity="1" stop-color="rgb(100%, 60.791016%, 30.804443%)" offset="0.875"/><stop stop-opacity="1" stop-color="rgb(100%, 60.55603%, 30.767822%)" offset="0.882813"/><stop stop-opacity="1" stop-color="rgb(100%, 60.319519%, 30.731201%)" offset="0.890625"/><stop stop-opacity="1" stop-color="rgb(100%, 60.084534%, 30.69458%)" offset="0.898438"/><stop stop-opacity="1" stop-color="rgb(100%, 59.848022%, 30.657959%)" offset="0.90625"/><stop stop-opacity="1" stop-color="rgb(100%, 59.611511%, 30.621338%)" offset="0.914062"/><stop stop-opacity="1" stop-color="rgb(100%, 59.376526%, 30.584717%)" offset="0.921875"/><stop stop-opacity="1" stop-color="rgb(100%, 59.140015%, 30.548096%)" offset="0.929688"/><stop stop-opacity="1" stop-color="rgb(100%, 58.903503%, 30.511475%)" offset="0.9375"/><stop stop-opacity="1" stop-color="rgb(100%, 58.668518%, 30.474854%)" offset="0.945312"/><stop stop-opacity="1" stop-color="rgb(100%, 58.432007%, 30.438232%)" offset="0.953125"/><stop stop-opacity="1" stop-color="rgb(100%, 58.197021%, 30.401611%)" offset="0.960938"/><stop stop-opacity="1" stop-color="rgb(100%, 57.96051%, 30.36499%)" offset="0.96875"/><stop stop-opacity="1" stop-color="rgb(100%, 57.723999%, 30.328369%)" offset="0.976562"/><stop stop-opacity="1" stop-color="rgb(100%, 57.489014%, 30.291748%)" offset="0.984375"/><stop stop-opacity="1" stop-color="rgb(100%, 57.252502%, 30.253601%)" offset="0.992188"/><stop stop-opacity="1" stop-color="rgb(100%, 57.015991%, 30.21698%)" offset="1"/></linearGradient><clipPath id="a606e211c4"><path d="M 16.4375 16.351562 L 58.4375 16.351562 L 58.4375 58.351562 L 16.4375 58.351562 Z M 16.4375 16.351562 " clip-rule="nonzero"/></clipPath></defs><g clip-path="url(#ec651cd352)"><g clip-path="url(#00ae62dd60)"><path fill="url(#7986694fb5)" d="M 11.523438 11.4375 L 11.523438 63.5625 L 63.648438 63.5625 L 63.648438 11.4375 Z M 11.523438 11.4375 " fill-rule="nonzero"/></g></g><g clip-path="url(#a606e211c4)"><path fill="#000000" d="M 28.738281 16.496094 C 26.503906 16.601562 24.980469 16.960938 23.644531 17.484375 C 22.265625 18.019531 21.09375 18.742188 19.929688 19.910156 C 18.765625 21.078125 18.050781 22.25 17.515625 23.632812 C 17 24.96875 16.648438 26.496094 16.550781 28.734375 C 16.449219 30.96875 16.429688 31.6875 16.441406 37.390625 C 16.449219 43.09375 16.476562 43.808594 16.585938 46.046875 C 16.691406 48.28125 17.046875 49.808594 17.570312 51.140625 C 18.109375 52.523438 18.832031 53.691406 20 54.855469 C 21.167969 56.023438 22.339844 56.738281 23.722656 57.273438 C 25.058594 57.789062 26.585938 58.140625 28.824219 58.238281 C 31.058594 58.335938 31.777344 58.359375 37.476562 58.347656 C 43.179688 58.335938 43.898438 58.3125 46.136719 58.207031 C 48.375 58.097656 49.894531 57.742188 51.230469 57.21875 C 52.609375 56.679688 53.78125 55.960938 54.945312 54.789062 C 56.109375 53.621094 56.824219 52.449219 57.359375 51.066406 C 57.875 49.730469 58.226562 48.203125 58.324219 45.96875 C 58.421875 43.726562 58.445312 43.011719 58.433594 37.308594 C 58.421875 31.609375 58.398438 30.894531 58.292969 28.652344 C 58.183594 26.414062 57.828125 24.894531 57.304688 23.558594 C 56.765625 22.175781 56.046875 21.007812 54.878906 19.84375 C 53.707031 18.675781 52.535156 17.960938 51.152344 17.429688 C 49.816406 16.910156 48.289062 16.558594 46.054688 16.464844 C 43.820312 16.367188 43.101562 16.339844 37.398438 16.351562 C 31.695312 16.363281 30.980469 16.386719 28.738281 16.496094 M 28.984375 54.460938 C 26.9375 54.371094 25.824219 54.03125 25.085938 53.746094 C 24.105469 53.367188 23.40625 52.910156 22.667969 52.179688 C 21.929688 51.449219 21.472656 50.746094 21.089844 49.769531 C 20.804688 49.027344 20.457031 47.917969 20.363281 45.871094 C 20.257812 43.65625 20.234375 42.992188 20.222656 37.386719 C 20.210938 31.777344 20.234375 31.113281 20.328125 28.902344 C 20.417969 26.855469 20.757812 25.742188 21.042969 25.003906 C 21.421875 24.019531 21.875 23.320312 22.609375 22.585938 C 23.34375 21.847656 24.042969 21.390625 25.023438 21.007812 C 25.761719 20.71875 26.871094 20.375 28.917969 20.277344 C 31.132812 20.171875 31.796875 20.152344 37.402344 20.140625 C 43.007812 20.128906 43.675781 20.148438 45.890625 20.246094 C 47.933594 20.335938 49.050781 20.675781 49.789062 20.960938 C 50.769531 21.339844 51.46875 21.792969 52.207031 22.527344 C 52.945312 23.261719 53.398438 23.957031 53.78125 24.941406 C 54.070312 25.679688 54.414062 26.789062 54.511719 28.835938 C 54.617188 31.050781 54.640625 31.714844 54.652344 37.320312 C 54.660156 42.925781 54.640625 43.589844 54.542969 45.804688 C 54.457031 47.851562 54.117188 48.964844 53.832031 49.707031 C 53.453125 50.6875 52.996094 51.386719 52.261719 52.121094 C 51.53125 52.859375 50.832031 53.316406 49.851562 53.699219 C 49.113281 53.984375 48 54.332031 45.957031 54.429688 C 43.742188 54.53125 43.078125 54.554688 37.46875 54.566406 C 31.863281 54.578125 31.199219 54.554688 28.984375 54.460938 M 46.105469 26.125 C 46.105469 26.460938 46.167969 26.78125 46.296875 27.089844 C 46.425781 27.398438 46.609375 27.671875 46.847656 27.90625 C 47.082031 28.144531 47.355469 28.324219 47.664062 28.453125 C 47.972656 28.578125 48.296875 28.644531 48.628906 28.640625 C 48.964844 28.640625 49.285156 28.578125 49.59375 28.449219 C 49.902344 28.320312 50.175781 28.136719 50.410156 27.902344 C 50.644531 27.664062 50.828125 27.390625 50.953125 27.082031 C 51.082031 26.773438 51.144531 26.453125 51.144531 26.117188 C 51.144531 25.78125 51.078125 25.460938 50.949219 25.152344 C 50.824219 24.84375 50.640625 24.574219 50.402344 24.335938 C 50.167969 24.101562 49.894531 23.917969 49.585938 23.792969 C 49.277344 23.664062 48.953125 23.601562 48.621094 23.601562 C 48.285156 23.601562 47.964844 23.667969 47.65625 23.796875 C 47.347656 23.925781 47.074219 24.105469 46.839844 24.34375 C 46.605469 24.582031 46.421875 24.851562 46.292969 25.160156 C 46.167969 25.472656 46.105469 25.792969 46.105469 26.125 M 26.65625 37.371094 C 26.667969 43.328125 31.503906 48.144531 37.457031 48.132812 C 43.410156 48.121094 48.230469 43.285156 48.21875 37.328125 C 48.210938 31.375 43.371094 26.554688 37.417969 26.566406 C 31.460938 26.578125 26.644531 31.417969 26.65625 37.371094 M 30.4375 37.363281 C 30.4375 36.902344 30.480469 36.449219 30.570312 35.996094 C 30.65625 35.546875 30.789062 35.109375 30.964844 34.683594 C 31.140625 34.257812 31.355469 33.855469 31.609375 33.472656 C 31.863281 33.089844 32.152344 32.734375 32.476562 32.410156 C 32.800781 32.082031 33.15625 31.792969 33.535156 31.535156 C 33.917969 31.28125 34.320312 31.0625 34.746094 30.886719 C 35.167969 30.710938 35.605469 30.578125 36.058594 30.488281 C 36.507812 30.394531 36.964844 30.351562 37.421875 30.347656 C 37.882812 30.347656 38.339844 30.390625 38.789062 30.480469 C 39.238281 30.570312 39.679688 30.703125 40.101562 30.878906 C 40.527344 31.050781 40.933594 31.265625 41.316406 31.523438 C 41.699219 31.777344 42.050781 32.066406 42.378906 32.390625 C 42.703125 32.714844 42.992188 33.066406 43.25 33.449219 C 43.507812 33.832031 43.722656 34.234375 43.898438 34.65625 C 44.074219 35.082031 44.210938 35.519531 44.300781 35.96875 C 44.390625 36.421875 44.4375 36.875 44.4375 37.335938 C 44.4375 37.796875 44.394531 38.25 44.304688 38.703125 C 44.214844 39.152344 44.085938 39.589844 43.910156 40.015625 C 43.734375 40.441406 43.519531 40.84375 43.265625 41.226562 C 43.011719 41.609375 42.722656 41.964844 42.398438 42.289062 C 42.074219 42.617188 41.71875 42.90625 41.335938 43.164062 C 40.957031 43.417969 40.554688 43.636719 40.128906 43.8125 C 39.703125 43.988281 39.265625 44.121094 38.816406 44.210938 C 38.367188 44.304688 37.910156 44.347656 37.449219 44.351562 C 36.992188 44.351562 36.535156 44.308594 36.085938 44.21875 C 35.632812 44.128906 35.195312 43.996094 34.769531 43.824219 C 34.347656 43.648438 33.941406 43.433594 33.558594 43.179688 C 33.175781 42.921875 32.824219 42.632812 32.496094 42.308594 C 32.171875 41.984375 31.878906 41.632812 31.625 41.25 C 31.367188 40.867188 31.152344 40.464844 30.976562 40.042969 C 30.796875 39.617188 30.664062 39.179688 30.574219 38.730469 C 30.484375 38.277344 30.4375 37.824219 30.4375 37.363281 " fill-opacity="1" fill-rule="nonzero"/></g></svg>